mtllib materials.mtl
v -0.01709916 -0.01560378 0
v -0.01709916 -0.02427208 0.0323503
v -0.04297939 -0.02427208 0.03235029
v -0.04297937 -0.01560378 -1.490116E-08
v -0.01709916 -0.04795408 0.05603236
v -0.04297939 -0.04795408 0.05603236
v -0.01709916 -0.08030438 0.06470057
v -0.04297937 -0.08030438 0.06470057
v -0.01709914 -0.1126546 0.05603233
v -0.04297937 -0.1126547 0.05603236
v -0.01709914 -0.1363368 0.0323503
v -0.04297934 -0.1363368 0.0323503
v -0.01709911 -0.1450049 0
v -0.04297934 -0.145005 -1.490116E-08
v -0.01709909 -0.1363367 -0.0323503
v -0.04297933 -0.1363368 -0.03235032
v -0.01709909 -0.1126547 -0.05603236
v -0.04297933 -0.1126547 -0.05603236
v -0.01709911 -0.08030438 -0.06470059
v -0.04297934 -0.08030438 -0.0647006
v -0.01709914 -0.04795408 -0.05603237
v -0.04297934 -0.04795408 -0.05603236
v -0.01709914 -0.02427208 -0.03235029
v -0.04297937 -0.02427208 -0.03235029
v 0.03659689 -0.02530444 0
v 0.03659689 -0.032673 0.0275
v -0.1234031 -0.032673 0.02749996
v -0.1234031 -0.02530444 -4.470348E-08
v 0.03659688 -0.05280435 0.04763138
v -0.1234031 -0.05280435 0.04763138
v 0.03659688 -0.08030438 0.05500001
v -0.1234031 -0.08030438 0.05499998
v 0.03659688 -0.1078044 0.04763138
v -0.1234031 -0.1078044 0.04763138
v 0.03659689 -0.1279358 0.0275
v -0.1234031 -0.1279358 0.02749996
v 0.03659689 -0.1353043 -1.490116E-08
v -0.1234031 -0.1353043 -4.470348E-08
v 0.0365969 -0.1279358 -0.02750002
v -0.1234031 -0.1279358 -0.02750005
v 0.03659691 -0.1078044 -0.0476314
v -0.1234031 -0.1078044 -0.04763144
v 0.03659691 -0.08030438 -0.05500001
v -0.1234031 -0.08030438 -0.05500004
v 0.03659691 -0.05280435 -0.0476314
v -0.1234031 -0.05280435 -0.04763144
v 0.0365969 -0.032673 -0.02749999
v -0.1234031 -0.032673 -0.02750003
v 0.06172122 -0.03530443 1.490116E-08
v 0.06172121 -0.0413332 0.02250002
v -0.01827878 -0.0413332 0.02250001
v -0.01827878 -0.03530443 0
v 0.06172121 -0.05780435 0.03897117
v -0.01827878 -0.05780435 0.03897116
v 0.06172122 -0.08030438 0.04500002
v -0.01827878 -0.08030438 0.04500002
v 0.06172123 -0.1028044 0.03897117
v -0.01827877 -0.1028044 0.03897116
v 0.06172124 -0.1192756 0.02250002
v -0.01827876 -0.1192756 0.02250001
v 0.06172125 -0.1253043 2.980232E-08
v -0.01827876 -0.1253043 0
v 0.06172125 -0.1192756 -0.02249998
v -0.01827875 -0.1192756 -0.02249999
v 0.06172125 -0.1028044 -0.03897113
v -0.01827875 -0.1028044 -0.03897114
v 0.06172124 -0.08030438 -0.04499997
v -0.01827876 -0.08030438 -0.04499999
v 0.06172124 -0.05780435 -0.03897113
v -0.01827876 -0.05780435 -0.03897114
v 0.06172123 -0.0413332 -0.02249996
v -0.01827877 -0.0413332 -0.02249998
v -0.03004014 0.9831327 0.008417055
v -0.02583098 0.9831327 0.007289201
v -0.0258301 -0.01909196 0.007290468
v -0.03003927 -0.01909196 0.008418307
v -0.02274966 0.9831327 0.004207894
v -0.02274878 -0.01909196 0.004209146
v -0.02162182 0.9831327 -1.251698E-06
v -0.02162094 -0.01909196 -1.490116E-08
v -0.02274965 0.9831327 -0.004210427
v -0.02274878 -0.01909196 -0.004209176
v -0.02583099 0.9831325 -0.007291734
v -0.0258301 -0.01909196 -0.007290497
v -0.03004014 0.9831327 -0.008419588
v -0.03003927 -0.01909196 -0.008418337
v -0.03424931 0.9831327 -0.007291749
v -0.03424843 -0.01909196 -0.007290497
v -0.03733061 0.9831327 -0.004210442
v -0.03732973 -0.01909196 -0.004209176
v -0.03845848 0.9831325 -1.266599E-06
v -0.03845759 -0.01909196 -1.490116E-08
v -0.03733063 0.9831327 0.004207879
v -0.03732975 -0.01909196 0.004209146
v -0.03424931 0.9831327 0.007289216
v -0.03424843 -0.01909196 0.007290468
vn -1.612015E-06 0.9659256 0.25882
vn -8.56358E-07 0.7071069 0.7071067
vn -1.805192E-08 0.2588187 0.9659259
vn 9.159904E-07 -0.2588194 0.9659258
vn 1.580288E-06 -0.7071061 0.7071075
vn 1.726562E-06 -0.9659261 0.2588181
vn 2.12066E-06 -0.9659261 -0.2588183
vn 6.871257E-07 -0.7071067 -0.7071069
vn 7.563644E-07 -0.2588189 -0.9659259
vn -2.955389E-07 0.2588187 -0.9659259
vn -1.128237E-06 0.7071072 -0.7071064
vn -1.484377E-06 0.9659257 -0.2588197
vn 1 3.993628E-07 3.925003E-07
vn -1 -3.44885E-07 -3.576279E-07
vn -2.694706E-07 0.9659261 0.2588184
vn -7.104756E-08 0.7071075 0.7071061
vn -7.303815E-08 0.2588188 0.9659259
vn -6.424347E-08 -0.2588187 0.9659259
vn -9.216639E-08 -0.7071075 0.7071061
vn -2.683843E-07 -0.965926 0.2588184
vn -1.181227E-07 -0.965926 -0.2588185
vn 2.475653E-07 -0.7071071 -0.7071065
vn 2.647726E-07 -0.2588188 -0.9659259
vn 2.569597E-07 0.2588188 -0.9659259
vn 2.336559E-07 0.7071073 -0.7071064
vn -1.533037E-07 0.9659261 -0.2588183
vn 1 2.955602E-09 2.086163E-07
vn -1 1.584532E-08 -2.416722E-07
vn -1.834124E-07 0.9659263 0.2588172
vn -6.411574E-07 0.7071068 0.7071068
vn -3.274891E-07 0.2588186 0.965926
vn -2.903622E-07 -0.2588186 0.965926
vn -5.040137E-07 -0.7071068 0.7071068
vn -1.332996E-08 -0.9659263 0.2588174
vn 1.496549E-07 -0.9659263 -0.2588173
vn -1.566802E-07 -0.7071068 -0.7071068
vn 1.426454E-07 -0.2588186 -0.965926
vn 5.926939E-08 0.2588186 -0.965926
vn -3.430943E-07 0.707107 -0.7071066
vn -6.323981E-08 0.9659263 -0.2588174
vn 1 2.458845E-07 2.463113E-07
vn -1 -1.731723E-07 -2.086163E-07
vn 0.2588201 1.438441E-06 0.9659256
vn 0.7071061 1.506101E-06 0.7071075
vn 0.9659255 1.166258E-06 0.2588204
vn 0.9659261 5.206917E-07 -0.2588182
vn 0.7071053 -2.57037E-07 -0.7071083
vn 0.2588209 -9.7231E-07 -0.9659253
vn -0.2588187 -1.436578E-06 -0.9659259
vn -0.7071067 -1.50839E-06 -0.7071069
vn -0.9659251 -1.177295E-06 -0.2588218
vn -0.9659255 -5.347517E-07 0.2588207
vn -0.7071079 2.627944E-07 0.7071058
vn -0.258819 9.770428E-07 0.9659259
vn -2.717744E-06 1 -3.459794E-06
vn 3.576279E-07 -1 -5.910492E-08
vt 0.01910507 -0.003511965
vt 0.01607914 -0.004947417
vt 0.01718837 -0.007285679
vt 0.0202143 -0.005850225
vt 0.07468008 0.03197739
vt 0.07181594 0.03024146
vt 0.07315736 0.02802821
vt 0.07602151 0.02976415
vt 0.1131607 0.05200413
vt 0.1102578 0.05033381
vt 0.1115485 0.04809062
vt 0.1144514 0.04976095
vt 0.1297123 0.03845879
vt 0.1265926 0.03724047
vt 0.127534 0.03482975
vt 0.1306537 0.03604807
vt 0.1105228 -0.0002548934
vt 0.1071906 -0.0005914983
vt 0.1074507 -0.003166415
vt 0.1107829 -0.002829813
vt 0.05239748 -0.02291754
vt 0.04912354 -0.02221179
vt 0.04857818 -0.0247417
vt 0.05185213 -0.02544745
vt -0.01607891 -0.004947479
vt -0.01910484 -0.003512027
vt -0.02021407 -0.005850291
vt -0.01718814 -0.007285743
vt -0.07181598 0.03024146
vt -0.07468012 0.03197739
vt -0.07602154 0.02976415
vt -0.0731574 0.02802821
vt -0.1102577 0.05033384
vt -0.1131606 0.05200417
vt -0.1144514 0.04976097
vt -0.1115485 0.04809066
vt -0.1265926 0.03724052
vt -0.1297123 0.03845884
vt -0.1306537 0.03604813
vt -0.127534 0.03482981
vt -0.1071905 -0.0005916329
vt -0.1105227 -0.0002550325
vt -0.1107828 -0.002829952
vt -0.1074506 -0.003166549
vt -0.04912374 -0.0222118
vt -0.05239769 -0.02291754
vt -0.05185233 -0.02544745
vt -0.04857839 -0.02474171
vt 0.09446538 0.1019318
vt 0.0911618 0.1013812
vt 0.08857612 0.09925257
vt 0.08740115 0.09611629
vt 0.08795175 0.09281271
vt 0.09008037 0.09022702
vt 0.09321664 0.08905205
vt 0.09652023 0.08960266
vt 0.09910591 0.09173127
vt 0.1002809 0.09486755
vt 0.09973028 0.09817113
vt 0.09760167 0.1007568
vt -0.09760166 0.1007568
vt -0.09973027 0.09817114
vt -0.1002809 0.09486756
vt -0.09910591 0.09173128
vt -0.09652022 0.08960266
vt -0.09321664 0.08905206
vt -0.09008036 0.09022702
vt -0.08795173 0.09281271
vt -0.08740114 0.09611629
vt -0.08857611 0.09925257
vt -0.09116179 0.1013812
vt -0.09446537 0.1019318
vt 0.01657668 0.001231557
vt 0.01400443 1.132308E-05
vt 0.02086206 -0.01444457
vt 0.02343431 -0.01322434
vt 0.07168216 0.03643914
vt 0.06924744 0.03496348
vt 0.07754058 0.0212805
vt 0.0799753 0.02275617
vt 0.1102651 0.05653306
vt 0.1077974 0.05511317
vt 0.1157771 0.04124505
vt 0.1182448 0.04266495
vt 0.1275251 0.04336923
vt 0.1248731 0.04233357
vt 0.1306935 0.02742976
vt 0.1333455 0.02846542
vt 0.1097332 0.005062032
vt 0.1069006 0.004775899
vt 0.1085086 -0.01114309
vt 0.1113412 -0.01085696
vt 0.05328353 -0.01761584
vt 0.05050045 -0.0170159
vt 0.04712886 -0.03265663
vt 0.04991195 -0.03325656
vt -0.01400447 1.128872E-05
vt -0.01657673 0.001231523
vt -0.02343436 -0.01322437
vt -0.0208621 -0.01444461
vt -0.06924748 0.03496353
vt -0.0716822 0.0364392
vt -0.07997534 0.02275622
vt -0.07754062 0.02128056
vt -0.1077974 0.05511317
vt -0.1102651 0.05653306
vt -0.1182447 0.04266495
vt -0.1157771 0.04124506
vt -0.1248731 0.04233357
vt -0.1275251 0.04336923
vt -0.1333455 0.02846542
vt -0.1306935 0.02742976
vt -0.1069006 0.004775909
vt -0.1097332 0.005062042
vt -0.1113413 -0.01085695
vt -0.1085087 -0.01114308
vt -0.05050044 -0.01701585
vt -0.05328352 -0.01761578
vt -0.04991193 -0.03325651
vt -0.04712885 -0.03265658
vt 0.09437171 0.1009663
vt 0.09156343 0.1004983
vt 0.08936542 0.09868879
vt 0.08836662 0.09602273
vt 0.08883467 0.09321446
vt 0.09064414 0.09101645
vt 0.0933102 0.09001764
vt 0.09611847 0.09048568
vt 0.09831649 0.09229516
vt 0.09931529 0.09496123
vt 0.09884724 0.09776949
vt 0.09703776 0.0999675
vt -0.09703775 0.09996749
vt -0.09884723 0.09776948
vt -0.09931529 0.09496121
vt -0.09831648 0.09229515
vt -0.09611847 0.09048568
vt -0.0933102 0.09001763
vt -0.09064414 0.09101643
vt -0.08883467 0.09321444
vt -0.08836661 0.09602271
vt -0.08936542 0.09868877
vt -0.09156343 0.1004983
vt -0.09437171 0.1009663
vt 0.01526586 0.003390505
vt 0.01316129 0.002392133
vt 0.0165901 -0.004835815
vt 0.01869467 -0.003837444
vt 0.07015864 0.03845371
vt 0.06816659 0.03724634
vt 0.07231316 0.03040486
vt 0.07430521 0.03161222
vt 0.1087877 0.05858166
vt 0.1067687 0.05741993
vt 0.1107585 0.05048588
vt 0.1127776 0.05164761
vt 0.1263701 0.04561539
vt 0.1242003 0.04476803
vt 0.1271105 0.03731612
vt 0.1292802 0.03816348
vt 0.1092232 0.00753578
vt 0.1069057 0.00730167
vt 0.1077097 -0.0006578238
vt 0.1100273 -0.0004237137
vt 0.05355983 -0.01510525
vt 0.05128276 -0.01461439
vt 0.04959697 -0.02243476
vt 0.05187403 -0.02292562
vt -0.01316131 0.002392142
vt -0.01526588 0.003390513
vt -0.0186947 -0.003837436
vt -0.01659013 -0.004835807
vt -0.06816663 0.03724628
vt -0.07015868 0.03845364
vt -0.07430525 0.03161215
vt -0.0723132 0.03040479
vt -0.1067687 0.05741992
vt -0.1087877 0.05858165
vt -0.1127776 0.05164759
vt -0.1107586 0.05048586
vt -0.1242003 0.04476804
vt -0.1263701 0.0456154
vt -0.1292802 0.03816349
vt -0.1271105 0.03731613
vt -0.1069056 0.007301708
vt -0.1092232 0.007535817
vt -0.1100273 -0.0004236771
vt -0.1077097 -0.0006577867
vt -0.05128276 -0.01461438
vt -0.05355982 -0.01510524
vt -0.05187402 -0.0229256
vt -0.04959696 -0.02243475
vt 0.09427523 0.09997094
vt 0.09197755 0.099588
vt 0.09017918 0.09810752
vt 0.08936197 0.0959262
vt 0.08974492 0.09362851
vt 0.0912254 0.09183015
vt 0.09340672 0.09101294
vt 0.09570439 0.09139588
vt 0.09750278 0.09287637
vt 0.09831998 0.09505769
vt 0.09793703 0.09735537
vt 0.09645654 0.09915374
vt -0.09645654 0.09915375
vt -0.09793703 0.09735538
vt -0.09831997 0.0950577
vt -0.09750277 0.09287638
vt -0.09570439 0.0913959
vt -0.09340671 0.09101295
vt -0.0912254 0.09183016
vt -0.08974491 0.09362853
vt -0.08936197 0.09592621
vt -0.09017917 0.09810753
vt -0.09197755 0.09958801
vt -0.09427522 0.09997095
vt 0.2233508 0.08578565
vt 0.2231646 0.08617966
vt 0.1325458 0.04336879
vt 0.1327319 0.04297478
vt 0.2226452 0.08903668
vt 0.2224438 0.08942313
vt 0.1335621 0.0431135
vt 0.1337635 0.04272705
vt 0.1988424 0.1339666
vt 0.1985645 0.1343022
vt 0.121373 0.07038018
vt 0.121651 0.07004455
vt 0.05735628 0.2322257
vt 0.05692685 0.2322997
vt 0.03990836 0.1335327
vt 0.04033779 0.1334587
vt -0.1560472 0.1805878
vt -0.1563696 0.1802947
vt -0.08895053 0.106138
vt -0.0886281 0.1064311
vt -0.210351 0.1127943
vt -0.2105675 0.1124161
vt -0.1235871 0.06262711
vt -0.1233706 0.06300531
vt -0.2231646 0.0861797
vt -0.2233508 0.08578569
vt -0.1327319 0.04297481
vt -0.1325458 0.04336882
vt -0.2224438 0.08942318
vt -0.2226452 0.08903673
vt -0.1337635 0.04272707
vt -0.1335621 0.04311353
vt -0.1985646 0.134302
vt -0.1988425 0.1339663
vt -0.121651 0.07004441
vt -0.1213731 0.07038004
vt -0.05692559 0.2323
vt -0.05735503 0.232226
vt -0.04033705 0.1334589
vt -0.03990762 0.1335329
vt 0.1563688 0.1802953
vt 0.1560464 0.1805885
vt 0.08862762 0.1064315
vt 0.08895005 0.1061384
vt 0.2105676 0.112416
vt 0.2103511 0.1127941
vt 0.1233707 0.06300519
vt 0.1235871 0.062627
vt -0.01593206 -0.01957499
vt -0.01553825 -0.01976154
vt -0.01510392 -0.01972619
vt -0.01474546 -0.0194784
vt -0.01455891 -0.01908459
vt -0.01459427 -0.01865026
vt -0.01484205 -0.0182918
vt -0.01523587 -0.01810525
vt -0.0156702 -0.01814061
vt -0.01602866 -0.01838839
vt -0.0162152 -0.0187822
vt -0.01617985 -0.01921653
vt 0.01617897 -0.01921681
vt 0.01621433 -0.01878248
vt 0.01602778 -0.01838866
vt 0.01566932 -0.01814088
vt 0.01523499 -0.01810552
vt 0.01484118 -0.01829207
vt 0.01459339 -0.01865053
vt 0.01455804 -0.01908486
vt 0.01474458 -0.01947867
vt 0.01510304 -0.01972646
vt 0.01553737 -0.01976181
vt 0.01593119 -0.01957527
o group1304056434
g mesh1304056434
usemtl mat16
f 4/4/1 3/3/1 2/2/1 1/1/1
f 3/8/2 6/7/2 5/6/2 2/5/2
f 6/12/3 8/11/3 7/10/3 5/9/3
f 8/16/4 10/15/4 9/14/4 7/13/4
f 10/20/5 12/19/5 11/18/5 9/17/5
f 12/24/6 14/23/6 13/22/6 11/21/6
f 14/28/7 16/27/7 15/26/7 13/25/7
f 16/32/8 18/31/8 17/30/8 15/29/8
f 18/36/9 20/35/9 19/34/9 17/33/9
f 20/40/10 22/39/10 21/38/10 19/37/10
f 22/44/11 24/43/11 23/42/11 21/41/11
f 24/48/12 4/47/12 1/46/12 23/45/12
f 1/60/13 2/59/13 5/58/13 7/57/13 9/56/13 11/55/13 13/54/13 15/53/13 17/52/13 19/51/13 21/50/13 23/49/13
f 24/72/14 22/71/14 20/70/14 18/69/14 16/68/14 14/67/14 12/66/14 10/65/14 8/64/14 6/63/14 3/62/14 4/61/14
o group1532719265
g mesh1532719265
usemtl mat23
f 28/76/15 27/75/15 26/74/15 25/73/15
f 27/80/16 30/79/16 29/78/16 26/77/16
f 30/84/17 32/83/17 31/82/17 29/81/17
f 32/88/18 34/87/18 33/86/18 31/85/18
f 34/92/19 36/91/19 35/90/19 33/89/19
f 36/96/20 38/95/20 37/94/20 35/93/20
f 38/100/21 40/99/21 39/98/21 37/97/21
f 40/104/22 42/103/22 41/102/22 39/101/22
f 42/108/23 44/107/23 43/106/23 41/105/23
f 44/112/24 46/111/24 45/110/24 43/109/24
f 46/116/25 48/115/25 47/114/25 45/113/25
f 48/120/26 28/119/26 25/118/26 47/117/26
f 25/132/27 26/131/27 29/130/27 31/129/27 33/128/27 35/127/27 37/126/27 39/125/27 41/124/27 43/123/27 45/122/27 47/121/27
f 48/144/28 46/143/28 44/142/28 42/141/28 40/140/28 38/139/28 36/138/28 34/137/28 32/136/28 30/135/28 27/134/28 28/133/28
o group61935849
g mesh61935849
usemtl mat12
f 52/148/29 51/147/29 50/146/29 49/145/29
f 51/152/30 54/151/30 53/150/30 50/149/30
f 54/156/31 56/155/31 55/154/31 53/153/31
f 56/160/32 58/159/32 57/158/32 55/157/32
f 58/164/33 60/163/33 59/162/33 57/161/33
f 60/168/34 62/167/34 61/166/34 59/165/34
f 62/172/35 64/171/35 63/170/35 61/169/35
f 64/176/36 66/175/36 65/174/36 63/173/36
f 66/180/37 68/179/37 67/178/37 65/177/37
f 68/184/38 70/183/38 69/182/38 67/181/38
f 70/188/39 72/187/39 71/186/39 69/185/39
f 72/192/40 52/191/40 49/190/40 71/189/40
f 49/204/41 50/203/41 53/202/41 55/201/41 57/200/41 59/199/41 61/198/41 63/197/41 65/196/41 67/195/41 69/194/41 71/193/41
f 72/216/42 70/215/42 68/214/42 66/213/42 64/212/42 62/211/42 60/210/42 58/209/42 56/208/42 54/207/42 51/206/42 52/205/42
o group1964874181
g mesh1964874181
usemtl mat16
f 76/220/43 75/219/43 74/218/43 73/217/43
f 75/224/44 78/223/44 77/222/44 74/221/44
f 78/228/45 80/227/45 79/226/45 77/225/45
f 80/232/46 82/231/46 81/230/46 79/229/46
f 82/236/47 84/235/47 83/234/47 81/233/47
f 84/240/48 86/239/48 85/238/48 83/237/48
f 86/244/49 88/243/49 87/242/49 85/241/49
f 88/248/50 90/247/50 89/246/50 87/245/50
f 90/252/51 92/251/51 91/250/51 89/249/51
f 92/256/52 94/255/52 93/254/52 91/253/52
f 94/260/53 96/259/53 95/258/53 93/257/53
f 96/264/54 76/263/54 73/262/54 95/261/54
f 73/276/55 74/275/55 77/274/55 79/273/55 81/272/55 83/271/55 85/270/55 87/269/55 89/268/55 91/267/55 93/266/55 95/265/55
f 96/288/56 94/287/56 92/286/56 90/285/56 88/284/56 86/283/56 84/282/56 82/281/56 80/280/56 78/279/56 75/278/56 76/277/56
